<svg width="411" height="496" viewBox="0 0 411 496" fill="none" xmlns="http://www.w3.org/2000/svg">
<path d="M295.564 386.406L148.801 473.16L141.667 461.933V299.652L277.219 215.96H295.564V386.406Z" fill="#F97210"/>
<path d="M148.801 472.14V294.549L49.94 222.084L-6.10352e-05 215.96V386.406L148.801 472.14Z" fill="#FBCB85"/>
<path d="M148.801 131.247L1.01938 215.96L148.801 302.714L294.545 215.96L148.801 131.247Z" fill="#F7962A"/>
<path d="M209.055 434.6L312.926 496L317.976 488.054V373.2L222.039 313.967H209.055V434.6Z" fill="#F97210"/>
<path d="M312.874 495.278V369.588L382.843 318.301L418.188 313.967V434.6L312.874 495.278Z" fill="#FBCB85"/>
<path d="M312.927 253.874L417.519 313.83L312.927 375.23L209.777 313.83L312.927 253.874Z" fill="#F7962A"/>
<path d="M165.878 223.384L312.641 310.138L319.775 298.911V136.63L184.224 52.9379H165.878V223.384Z" fill="#F97210"/>
<path d="M312.641 309.118V131.527L411.503 59.0617L461.443 52.9379V223.384L312.641 309.118Z" fill="#FBCB85"/>
<path d="M312.641 -31.775L460.423 52.9379L312.641 139.692L166.898 52.9379L312.641 -31.775Z" fill="#F7962A"/>
<path d="M252.387 271.578L148.516 332.978L143.467 325.032V210.178L239.403 150.945H252.387V271.578Z" fill="#F97210"/>
<path d="M148.568 332.256V206.566L78.5993 155.279L43.2543 150.945V271.578L148.568 332.256Z" fill="#FBCB85"/>
<path d="M148.516 90.8521L43.9232 150.808L148.516 212.208L251.665 150.808L148.516 90.8521Z" fill="#F7962A"/>
</svg>
