<svg width="339" height="524" viewBox="0 0 339 524" fill="none" xmlns="http://www.w3.org/2000/svg">
<path d="M-31.2222 523.811L152.612 632.479L161.548 618.416V415.143L-8.2429 310.311H-31.2222V523.811Z" fill="#F97210"/>
<path d="M152.613 631.2V408.751L276.445 317.982L339 310.311V523.811L152.613 631.2Z" fill="#FBCB85"/>
<path d="M152.612 204.2L337.723 310.311L152.612 418.979L-29.9452 310.311L152.612 204.2Z" fill="#F7962A"/>
<path d="M77.1372 584.178L-52.9711 661.087L-59.2958 651.134V507.269L60.8737 433.074H77.1372V584.178Z" fill="#F97210"/>
<path d="M-52.9716 357.802L-183.983 432.902L-52.9716 509.811L76.2331 432.902L-52.9716 357.802Z" fill="#F7962A"/>
<path d="M131.222 319.611L-52.6119 428.278L-61.5483 414.216V210.943L108.243 106.111H131.222V319.611Z" fill="#F97210"/>
<path d="M-52.6122 1.52588e-05L-237.723 106.111L-52.6122 214.778L129.945 106.111L-52.6122 1.52588e-05Z" fill="#F7962A"/>
<path d="M22.8628 379.978L152.971 456.887L159.296 446.934V303.069L39.1264 228.874H22.8628V379.978Z" fill="#F97210"/>
<path d="M152.906 455.982V298.544L240.548 234.303L284.821 228.874V379.978L152.906 455.982Z" fill="#FBCB85"/>
<path d="M152.972 153.602L283.984 228.702L152.972 305.611L23.767 228.702L152.972 153.602Z" fill="#F7962A"/>
</svg>
