<svg width="20" height="20" viewBox="0 0 20 20" fill="none" xmlns="http://www.w3.org/2000/svg">
<path d="M0.666656 9.99999C0.666656 15.1546 4.84533 19.3333 9.99999 19.3333C15.1546 19.3333 19.3333 15.1546 19.3333 9.99999C19.3333 4.84533 15.1546 0.666656 9.99999 0.666656C4.84533 0.666656 0.666656 4.84533 0.666656 9.99999Z" fill="#141414"/>
<path d="M9.99999 19.3333C4.84533 19.3333 0.666656 15.1546 0.666656 9.99999C0.666656 4.84533 4.84533 0.666656 9.99999 0.666656C15.1546 0.666656 19.3333 4.84533 19.3333 9.99999C19.3333 15.1546 15.1546 19.3333 9.99999 19.3333ZM9.99999 19.3333V8.66666C9.99999 7.1939 11.1939 5.99999 12.6667 5.99999H13.3333M6.66666 11.3333H13.3333" stroke="white"/>
</svg>
