<svg width="20" height="20" viewBox="0 0 20 20" fill="none" xmlns="http://www.w3.org/2000/svg">
<path d="M14 0.666656H5.99999C3.05447 0.666656 0.666656 3.05447 0.666656 5.99999V14C0.666656 16.9455 3.05447 19.3333 5.99999 19.3333H14C16.9455 19.3333 19.3333 16.9455 19.3333 14V5.99999C19.3333 3.05447 16.9455 0.666656 14 0.666656Z" fill="#141414"/>
<path d="M5.99999 9.99999C5.99999 12.2091 7.79085 14 9.99999 14C12.2091 14 14 12.2091 14 9.99999C14 7.79085 12.2091 5.99999 9.99999 5.99999C7.79085 5.99999 5.99999 7.79085 5.99999 9.99999Z" fill="#141414"/>
<path d="M14.6667 4.66666H16M5.99999 0.666656H14C16.9455 0.666656 19.3333 3.05447 19.3333 5.99999V14C19.3333 16.9455 16.9455 19.3333 14 19.3333H5.99999C3.05447 19.3333 0.666656 16.9455 0.666656 14V5.99999C0.666656 3.05447 3.05447 0.666656 5.99999 0.666656ZM9.99999 14C7.79085 14 5.99999 12.2091 5.99999 9.99999C5.99999 7.79085 7.79085 5.99999 9.99999 5.99999C12.2091 5.99999 14 7.79085 14 9.99999C14 12.2091 12.2091 14 9.99999 14Z" stroke="white"/>
</svg>
