<svg width="20" height="16" viewBox="0 0 20 16" fill="none" xmlns="http://www.w3.org/2000/svg">
<path d="M17.9732 4C19.0733 2.94586 19.4465 2.14114 19.3045 0C18.6615 0.714762 17.8102 1.16828 16.9547 1.29784C16.234 0.500725 15.1924 0 14.0341 0C11.7982 0 9.98559 1.81539 9.98559 4.0548L9.98559 5.33333C5.19299 5.33333 2.66357 1.77778 1.99793 0C-0.664619 5.33333 1.33229 10 7.32303 12C6.43553 12.8889 3.86172 14.6667 0.666656 14.6667C2.66357 16 4.75579 16 6.907 16C13.0187 16 17.9732 11.0378 17.9732 4.91666V4Z" fill="#141414"/>
</svg>
