<svg width="22" height="16" viewBox="0 0 22 16" fill="none" xmlns="http://www.w3.org/2000/svg">
<path d="M1 8L0.537076 7.81105C0.487641 7.93217 0.487641 8.06783 0.537076 8.18895L1 8ZM21 8L21.4629 8.18895C21.5124 8.06783 21.5124 7.93217 21.4629 7.81105L21 8ZM11 14.5C7.61062 14.5 5.23493 12.8444 3.68968 11.1618C2.91646 10.3198 2.35683 9.47634 1.99088 8.84346C1.80818 8.5275 1.67453 8.26538 1.5873 8.08403C1.5437 7.9934 1.51175 7.92306 1.49112 7.87641C1.48081 7.85309 1.47333 7.8357 1.46864 7.82466C1.4663 7.81914 1.46465 7.81521 1.4637 7.81293C1.46323 7.81178 1.46293 7.81105 1.4628 7.81074C1.46273 7.81058 1.46271 7.81053 1.46273 7.81058C1.46274 7.81061 1.46279 7.81072 1.4628 7.81074C1.46285 7.81088 1.46292 7.81105 1 8C0.537076 8.18895 0.537167 8.18917 0.53727 8.18942C0.537319 8.18954 0.537433 8.18982 0.537531 8.19006C0.537727 8.19054 0.537967 8.19112 0.538252 8.19181C0.538821 8.19319 0.539568 8.195 0.540493 8.19722C0.542342 8.20166 0.544905 8.20778 0.548185 8.2155C0.554746 8.23095 0.564183 8.25287 0.57654 8.28082C0.601252 8.3367 0.637664 8.41676 0.68614 8.51753C0.783056 8.719 0.92842 9.00375 1.12518 9.34404C1.51816 10.0237 2.11924 10.9302 2.95315 11.8382C4.62218 13.6556 7.24648 15.5 11 15.5V14.5ZM1 8C1.46292 8.18895 1.46285 8.18912 1.4628 8.18926C1.46279 8.18928 1.46274 8.18939 1.46273 8.18942C1.46271 8.18947 1.46273 8.18942 1.4628 8.18926C1.46293 8.18895 1.46323 8.18822 1.4637 8.18707C1.46465 8.18479 1.4663 8.18086 1.46864 8.17534C1.47333 8.1643 1.48081 8.14691 1.49112 8.12359C1.51175 8.07693 1.5437 8.0066 1.5873 7.91597C1.67453 7.73462 1.80818 7.4725 1.99088 7.15653C2.35683 6.52366 2.91646 5.68016 3.68968 4.8382C5.23493 3.15559 7.61062 1.5 11 1.5V0.5C7.24648 0.5 4.62218 2.34441 2.95315 4.1618C2.11924 5.06984 1.51816 5.97634 1.12518 6.65596C0.92842 6.99625 0.783056 7.281 0.68614 7.48247C0.637664 7.58324 0.601252 7.6633 0.57654 7.71918C0.564183 7.74713 0.554746 7.76905 0.548185 7.7845C0.544905 7.79222 0.542342 7.79834 0.540493 7.80278C0.539568 7.805 0.538821 7.80681 0.538252 7.80819C0.537967 7.80888 0.537727 7.80946 0.537531 7.80994C0.537433 7.81018 0.537319 7.81046 0.53727 7.81058C0.537167 7.81083 0.537076 7.81105 1 8ZM11 1.5C14.3893 1.5 16.765 3.15559 18.3103 4.8382C19.0835 5.68016 19.6432 6.52366 20.0091 7.15654C20.1918 7.4725 20.3255 7.73463 20.4127 7.91597C20.4563 8.0066 20.4883 8.07694 20.5089 8.12359C20.5192 8.14691 20.5267 8.16431 20.5314 8.17534C20.5337 8.18086 20.5353 8.18479 20.5363 8.18708C20.5368 8.18822 20.5371 8.18895 20.5372 8.18927C20.5373 8.18942 20.5373 8.18948 20.5373 8.18942C20.5373 8.1894 20.5372 8.18928 20.5372 8.18927C20.5371 8.18912 20.5371 8.18895 21 8C21.4629 7.81105 21.4628 7.81083 21.4627 7.81057C21.4627 7.81045 21.4626 7.81018 21.4625 7.80994C21.4623 7.80946 21.462 7.80888 21.4617 7.80818C21.4612 7.8068 21.4604 7.805 21.4595 7.80278C21.4577 7.79833 21.4551 7.79222 21.4518 7.7845C21.4453 7.76904 21.4358 7.74713 21.4235 7.71918C21.3987 7.6633 21.3623 7.58324 21.3139 7.48247C21.2169 7.281 21.0716 6.99625 20.8748 6.65596C20.4818 5.97634 19.8807 5.06984 19.0468 4.1618C17.3778 2.34441 14.7535 0.5 11 0.5V1.5ZM21 8C20.5371 7.81105 20.5371 7.81088 20.5372 7.81073C20.5372 7.81072 20.5373 7.8106 20.5373 7.81058C20.5373 7.81052 20.5373 7.81058 20.5372 7.81073C20.5371 7.81105 20.5368 7.81178 20.5363 7.81292C20.5353 7.81521 20.5337 7.81914 20.5314 7.82466C20.5267 7.83569 20.5192 7.85309 20.5089 7.87641C20.4883 7.92306 20.4563 7.9934 20.4127 8.08403C20.3255 8.26537 20.1918 8.5275 20.0091 8.84346C19.6432 9.47634 19.0835 10.3198 18.3103 11.1618C16.765 12.8444 14.3893 14.5 11 14.5V15.5C14.7535 15.5 17.3778 13.6556 19.0468 11.8382C19.8807 10.9302 20.4818 10.0237 20.8748 9.34404C21.0716 9.00375 21.2169 8.719 21.3139 8.51753C21.3623 8.41676 21.3987 8.3367 21.4235 8.28082C21.4358 8.25287 21.4453 8.23096 21.4518 8.2155C21.4551 8.20778 21.4577 8.20167 21.4595 8.19722C21.4604 8.195 21.4612 8.1932 21.4617 8.19182C21.462 8.19112 21.4623 8.19054 21.4625 8.19006C21.4626 8.18982 21.4627 8.18955 21.4627 8.18943C21.4628 8.18917 21.4629 8.18895 21 8ZM11 10.3C9.68861 10.3 8.64286 9.26078 8.64286 8H7.64286C7.64286 9.83201 9.15547 11.3 11 11.3V10.3ZM13.3571 8C13.3571 9.26078 12.3114 10.3 11 10.3V11.3C12.8445 11.3 14.3571 9.83201 14.3571 8H13.3571ZM11 5.7C12.3114 5.7 13.3571 6.73922 13.3571 8H14.3571C14.3571 6.16799 12.8445 4.7 11 4.7V5.7ZM11 4.7C9.15547 4.7 7.64286 6.16799 7.64286 8H8.64286C8.64286 6.73922 9.68861 5.7 11 5.7V4.7Z" fill="white"/>
</svg>
